<mxfile host="app.diagrams.net" modified="2022-10-02T20:53:30.234Z" agent="5.0 (Windows NT 10.0; Win64; x64) AppleWebKit/537.36 (KHTML, like Gecko) Chrome/105.0.0.0 Safari/537.36" etag="wx6Ynqg_wvogv7ZWjef8" version="20.4.0" type="github">
  <diagram id="6a731a19-8d31-9384-78a2-239565b7b9f0" name="Page-1">
    <mxGraphModel dx="1422" dy="762" grid="1" gridSize="10" guides="1" tooltips="1" connect="1" arrows="1" fold="1" page="1" pageScale="1" pageWidth="827" pageHeight="1169" background="none" math="0" shadow="0">
      <root>
        <mxCell id="0" />
        <mxCell id="1" parent="0" />
        <mxCell id="2094" value="" style="rounded=1;whiteSpace=wrap;html=1;strokeColor=none;fillColor=#BAC8D3;fontSize=24;fontColor=#23445D;align=center;opacity=60;" parent="1" vertex="1">
          <mxGeometry x="50" y="40" width="700" height="390" as="geometry" />
        </mxCell>
        <mxCell id="UhDmBGkFo8lFeGL9cCql-2260" style="edgeStyle=orthogonalEdgeStyle;rounded=0;orthogonalLoop=1;jettySize=auto;html=1;entryX=0;entryY=0.5;entryDx=0;entryDy=0;entryPerimeter=0;exitX=0.83;exitY=0.5;exitDx=0;exitDy=0;exitPerimeter=0;" edge="1" parent="1" source="UhDmBGkFo8lFeGL9cCql-2271" target="2107">
          <mxGeometry relative="1" as="geometry">
            <mxPoint x="142" y="88" as="sourcePoint" />
          </mxGeometry>
        </mxCell>
        <mxCell id="UhDmBGkFo8lFeGL9cCql-2258" style="edgeStyle=orthogonalEdgeStyle;rounded=0;orthogonalLoop=1;jettySize=auto;html=1;entryX=0.297;entryY=0.91;entryDx=0;entryDy=0;entryPerimeter=0;" edge="1" parent="1" source="UhDmBGkFo8lFeGL9cCql-2272" target="2107">
          <mxGeometry relative="1" as="geometry">
            <mxPoint x="142" y="221" as="sourcePoint" />
          </mxGeometry>
        </mxCell>
        <mxCell id="UhDmBGkFo8lFeGL9cCql-2261" style="edgeStyle=orthogonalEdgeStyle;rounded=0;orthogonalLoop=1;jettySize=auto;html=1;" edge="1" parent="1" source="2107" target="2138">
          <mxGeometry relative="1" as="geometry" />
        </mxCell>
        <mxCell id="2107" value="" style="shape=mxgraph.cisco.switches.workgroup_switch;html=1;dashed=0;fillColor=#10739E;strokeColor=#ffffff;strokeWidth=2;verticalLabelPosition=bottom;verticalAlign=top;fontFamily=Helvetica;fontSize=36;fontColor=#FFB366" parent="1" vertex="1">
          <mxGeometry x="260" y="104.5" width="101" height="50" as="geometry" />
        </mxCell>
        <mxCell id="2109" value="Internet" style="shape=mxgraph.cisco.storage.cloud;html=1;dashed=0;strokeColor=#23445D;fillColor=#ffffff;strokeWidth=2;fontFamily=Helvetica;fontSize=24;fontColor=#23445D;align=center;fontStyle=1" parent="1" vertex="1">
          <mxGeometry x="772" y="57" width="186" height="106" as="geometry" />
        </mxCell>
        <mxCell id="UhDmBGkFo8lFeGL9cCql-2262" style="edgeStyle=orthogonalEdgeStyle;rounded=0;orthogonalLoop=1;jettySize=auto;html=1;" edge="1" parent="1" source="2138" target="2109">
          <mxGeometry relative="1" as="geometry" />
        </mxCell>
        <mxCell id="2138" value="" style="shape=mxgraph.cisco.routers.router;html=1;dashed=0;fillColor=#10739E;strokeColor=#ffffff;strokeWidth=2;verticalLabelPosition=bottom;verticalAlign=top;fontFamily=Helvetica;fontSize=36;fontColor=#FFB366" parent="1" vertex="1">
          <mxGeometry x="572" y="101.5" width="78" height="53" as="geometry" />
        </mxCell>
        <mxCell id="UhDmBGkFo8lFeGL9cCql-2263" value="192.168.1.1" style="text;strokeColor=none;fillColor=none;html=1;fontSize=24;fontStyle=1;verticalAlign=middle;align=center;" vertex="1" parent="1">
          <mxGeometry x="560.5" y="61" width="100" height="40" as="geometry" />
        </mxCell>
        <mxCell id="UhDmBGkFo8lFeGL9cCql-2264" value="192.168.1.10" style="text;strokeColor=none;fillColor=none;html=1;fontSize=24;fontStyle=1;verticalAlign=middle;align=center;" vertex="1" parent="1">
          <mxGeometry x="99" y="130" width="100" height="40" as="geometry" />
        </mxCell>
        <mxCell id="UhDmBGkFo8lFeGL9cCql-2265" value="192.168.1.11" style="text;strokeColor=none;fillColor=none;html=1;fontSize=24;fontStyle=1;verticalAlign=middle;align=center;" vertex="1" parent="1">
          <mxGeometry x="99" y="270" width="100" height="40" as="geometry" />
        </mxCell>
        <mxCell id="UhDmBGkFo8lFeGL9cCql-2266" value="" style="shape=mxgraph.cisco.wireless.wireless_transport;sketch=0;html=1;pointerEvents=1;dashed=0;fillColor=#036897;strokeColor=#ffffff;strokeWidth=2;verticalLabelPosition=bottom;verticalAlign=top;align=center;outlineConnect=0;" vertex="1" parent="1">
          <mxGeometry x="573" y="154.5" width="77" height="54" as="geometry" />
        </mxCell>
        <mxCell id="UhDmBGkFo8lFeGL9cCql-2275" style="edgeStyle=orthogonalEdgeStyle;rounded=0;orthogonalLoop=1;jettySize=auto;html=1;" edge="1" parent="1" source="UhDmBGkFo8lFeGL9cCql-2269" target="UhDmBGkFo8lFeGL9cCql-2266">
          <mxGeometry relative="1" as="geometry" />
        </mxCell>
        <mxCell id="UhDmBGkFo8lFeGL9cCql-2269" value="" style="shape=mxgraph.cisco.computers_and_peripherals.laptop;sketch=0;html=1;pointerEvents=1;dashed=0;fillColor=#036897;strokeColor=#ffffff;strokeWidth=2;verticalLabelPosition=bottom;verticalAlign=top;align=center;outlineConnect=0;" vertex="1" parent="1">
          <mxGeometry x="550" y="325" width="90" height="61" as="geometry" />
        </mxCell>
        <mxCell id="UhDmBGkFo8lFeGL9cCql-2273" style="edgeStyle=orthogonalEdgeStyle;rounded=0;orthogonalLoop=1;jettySize=auto;html=1;entryX=0;entryY=0.5;entryDx=0;entryDy=0;entryPerimeter=0;" edge="1" parent="1" source="UhDmBGkFo8lFeGL9cCql-2270" target="UhDmBGkFo8lFeGL9cCql-2266">
          <mxGeometry relative="1" as="geometry" />
        </mxCell>
        <mxCell id="UhDmBGkFo8lFeGL9cCql-2270" value="" style="shape=mxgraph.cisco.computers_and_peripherals.tablet;sketch=0;html=1;pointerEvents=1;dashed=0;fillColor=#036897;strokeColor=#ffffff;strokeWidth=2;verticalLabelPosition=bottom;verticalAlign=top;align=center;outlineConnect=0;" vertex="1" parent="1">
          <mxGeometry x="330" y="325" width="91" height="50" as="geometry" />
        </mxCell>
        <mxCell id="UhDmBGkFo8lFeGL9cCql-2271" value="" style="shape=mxgraph.cisco.computers_and_peripherals.pc;sketch=0;html=1;pointerEvents=1;dashed=0;fillColor=#036897;strokeColor=#ffffff;strokeWidth=2;verticalLabelPosition=bottom;verticalAlign=top;align=center;outlineConnect=0;" vertex="1" parent="1">
          <mxGeometry x="90" y="60" width="78" height="70" as="geometry" />
        </mxCell>
        <mxCell id="UhDmBGkFo8lFeGL9cCql-2272" value="" style="shape=mxgraph.cisco.computers_and_peripherals.pc;sketch=0;html=1;pointerEvents=1;dashed=0;fillColor=#036897;strokeColor=#ffffff;strokeWidth=2;verticalLabelPosition=bottom;verticalAlign=top;align=center;outlineConnect=0;" vertex="1" parent="1">
          <mxGeometry x="80" y="200" width="78" height="70" as="geometry" />
        </mxCell>
        <mxCell id="UhDmBGkFo8lFeGL9cCql-2276" value="192.168.1.51" style="text;strokeColor=none;fillColor=none;html=1;fontSize=24;fontStyle=1;verticalAlign=middle;align=center;" vertex="1" parent="1">
          <mxGeometry x="325.5" y="375" width="100" height="40" as="geometry" />
        </mxCell>
        <mxCell id="UhDmBGkFo8lFeGL9cCql-2277" value="192.168.1.50" style="text;strokeColor=none;fillColor=none;html=1;fontSize=24;fontStyle=1;verticalAlign=middle;align=center;" vertex="1" parent="1">
          <mxGeometry x="545" y="386" width="100" height="40" as="geometry" />
        </mxCell>
      </root>
    </mxGraphModel>
  </diagram>
</mxfile>
